/* XPM */
static char *_0475_0cda319719d7b6df4974fec32a0d54fdc47ae0ab64bbd85c599f973b8b7e4598[] = {
/* columns rows colors chars-per-pixel */
"16 16 63 1 ",
"  c #00002C",
". c #000A40",
"X c #00074F",
"o c #00134C",
"O c #071D4D",
"+ c #00155A",
"@ c #001162",
"# c #0D1F60",
"$ c #0D2361",
"% c #0F2565",
"& c #102563",
"* c #14316B",
"= c #0F2971",
"- c #0A2B7E",
"; c #122E76",
": c #142378",
"> c #183174",
", c #183078",
"< c #213A7E",
"1 c #092886",
"2 c #112F84",
"3 c #183484",
"4 c #1F3981",
"5 c #193987",
"6 c #193088",
"7 c #0B2A98",
"8 c #153A95",
"9 c #223F98",
"0 c #1836A1",
"q c #173CA5",
"w c #123BB2",
"e c #213FA6",
"r c #1C428A",
"t c #1F469A",
"y c #254387",
"u c #234089",
"i c #224388",
"p c #23428E",
"a c #234190",
"s c #244391",
"d c #264594",
"f c #294790",
"g c #274991",
"h c #2A4C95",
"j c #21419B",
"k c #244A9C",
"l c #1A43AD",
"z c #1743B9",
"x c #284AA2",
"c c #2650AB",
"v c #244BB0",
"b c #2A54BF",
"n c #2C58C2",
"m c #3D6FD7",
"M c #215BE1",
"N c #4A74C5",
"B c #4976CE",
"V c #4F7ACB",
"C c #4373D3",
"Z c #467AE4",
"A c #4D84DC",
"S c #5492F4",
"D c None",
/* pixels */
"DDDDDDDDDDDDDDDD",
"DDDDDDDDDDDDDDDD",
"DDDDoDDDDDDD+DDD",
"DDDD.DDDDDDD@DDD",
"DDDD9 DDDDDXeDDD",
"DDDDS7DDDDD1ZDDD",
"DDDDAM-DDDOlmDDD",
"DDDDBzbDDDyqCDDD",
"DDDDD3jtDr<5DDDD",
"DDDDDh$skp&gDDDD",
"DDDDDV=>x,2NDDDD",
"DDDDDD;iuc8DDDDD",
"DDDDDDf%#wnDDDDD",
"DDDDDD*6v0DDDDDD",
"DDDDDDDd:aDDDDDD",
"DDDDDDDD4DDDDDDD"
};
