/* XPM */
static char *_9630_9ad637563a2ef9aaf4c151b7f28abf64201b98f29d2457470a87c5b80ae52ffe[] = {
/* columns rows colors chars-per-pixel */
"64 64 196 2 ",
"   c #00001C",
".  c #000224",
"X  c #00042B",
"o  c #02092D",
"O  c #000533",
"+  c #010A34",
"@  c #00023C",
"#  c #010B3C",
"$  c #02123E",
"%  c #08143F",
"&  c #000544",
"*  c #000B45",
"=  c #00054E",
"-  c #010C4C",
";  c #031243",
":  c #091542",
">  c #081847",
",  c #03134C",
"<  c #09174A",
"1  c #0B1A4C",
"2  c #051D4F",
"3  c #000754",
"4  c #000B54",
"5  c #000C5B",
"6  c #031553",
"7  c #091757",
"8  c #001A55",
"9  c #0C1C53",
"0  c #02135D",
"q  c #01195C",
"w  c #0A1C5B",
"e  c #0D2055",
"r  c #0D2059",
"t  c #11255E",
"y  c #112353",
"u  c #000E66",
"i  c #021363",
"p  c #001C62",
"a  c #0B1D64",
"s  c #01136B",
"d  c #021C6D",
"f  c #0A1E6A",
"g  c #000E72",
"h  c #001273",
"j  c #00137C",
"k  c #021D7D",
"l  c #0D2365",
"z  c #0C226C",
"x  c #112664",
"c  c #142963",
"v  c #152C6B",
"b  c #182F6D",
"n  c #11236A",
"m  c #0D2374",
"M  c #0C257F",
"N  c #042478",
"B  c #142B75",
"V  c #192F77",
"C  c #102478",
"Z  c #152D7B",
"A  c #143270",
"S  c #193374",
"D  c #17307F",
"F  c #1B367B",
"G  c #1C397E",
"H  c #000F82",
"J  c #000F8D",
"K  c #001285",
"L  c #081F82",
"P  c #00178B",
"I  c #011B8A",
"U  c #031A85",
"Y  c #001692",
"T  c #001B93",
"R  c #072086",
"E  c #0B2585",
"W  c #0A248D",
"Q  c #0E2B86",
"!  c #142D83",
"~  c #112D8C",
"^  c #1B3583",
"/  c #1F3B83",
"(  c #14318D",
")  c #18348A",
"_  c #1F3E8F",
"`  c #173E83",
"'  c #092790",
"]  c #00219C",
"[  c #0E2D99",
"{  c #052799",
"}  c #122F97",
"|  c #143393",
" . c #193792",
".. c #1C3A92",
"X. c #183698",
"o. c #183B98",
"O. c #133498",
"+. c #213B86",
"@. c #203E8A",
"#. c #213F94",
"$. c #0A2BA2",
"%. c #0E31A9",
"&. c #1337A6",
"*. c #1538A3",
"=. c #153CAC",
"-. c #1E408B",
";. c #22428D",
":. c #2B4587",
">. c #234392",
",. c #24459C",
"<. c #25499A",
"1. c #284B9D",
"2. c #1C42A5",
"3. c #1D44AE",
"4. c #1742B2",
"5. c #1F4AB5",
"6. c #1946B6",
"7. c #2A4EA2",
"8. c #2A4FA9",
"9. c #274CA0",
"0. c #2A51A6",
"q. c #2C52AA",
"w. c #3156AE",
"e. c #264EB4",
"r. c #2C55B2",
"t. c #2C56BB",
"y. c #2A5CBE",
"u. c #2A57BB",
"i. c #3057B6",
"p. c #325AB4",
"a. c #325DBC",
"s. c #3460BD",
"d. c #4B75BF",
"f. c #2453C2",
"g. c #2C5CC2",
"h. c #2C5ECA",
"j. c #305FC9",
"k. c #325DC2",
"l. c #2B5FD2",
"z. c #2E63CD",
"x. c #2E62C4",
"c. c #3663C4",
"v. c #3564CC",
"b. c #3867CA",
"n. c #346BC9",
"m. c #3969CD",
"M. c #2B64D1",
"N. c #3464D1",
"B. c #356BD5",
"V. c #3C6CD3",
"C. c #346DDA",
"Z. c #3C6DD9",
"A. c #3A67D0",
"S. c #3C71D6",
"D. c #3D72DB",
"F. c #3672E1",
"G. c #3C75E2",
"H. c #3E7AE5",
"J. c #3C7CEA",
"K. c #4B79CE",
"L. c #4272D6",
"P. c #4B7BD5",
"I. c #4173DC",
"U. c #4379DA",
"Y. c #4A7CDB",
"T. c #507ED7",
"R. c #4275E1",
"E. c #427AE5",
"W. c #487FE3",
"Q. c #427CEB",
"!. c #457FF1",
"~. c #3F82EB",
"^. c #4383DF",
"/. c #5182DC",
"(. c #5889DE",
"). c #4383ED",
"_. c #4A84E9",
"`. c #4F85E6",
"'. c #548EEA",
"]. c #5589E4",
"[. c #4E90EB",
"{. c #5790E7",
"}. c #5391EE",
"|. c #4381F2",
" X c #4B8EF4",
".X c #4788F9",
"XX c #488DF6",
"oX c #4B93F7",
"OX c #569BF3",
"+X c #5094F5",
"@X c #6199E9",
"#X c #57A4FF",
"$X c #61ADFC",
"%X c #60A4F0",
"&X c #7BBDF5",
"*X c None",
/* pixels */
"*X*X*X*X*X*X*X*X*X*X*X*X*X*X*X*X*X*X*X*X*X*X*X*X*X*X*X*X*X*X*X*X*X*X*X*X*X*X*X*X*X*X*X*X*X*X*X*X*X*X*X*X*X*X*X*X*X*X*X*X*X*X*X*X",
"*X*X*X*X*X*X*X*X*X*X*X*X*X*X*X*X*X*X*X*X*X*X*X*X*X*X*X*X*X*X*X*X*X*X*X*X*X*X*X*X*X*X*X*X*X*X*X*X*X*X*X*X*X*X*X*X*X*X*X*X*X*X*X*X",
"*X*X*X*X*X*X*X*X*X*X*X*X*X*X*X*X*X*X*X*X*X*X*X*X*X*X*X*X*X*X*X*X*X*X*X*X*X*X*X*X*X*X*X*X*X*X*X*X*X*X*X*X*X*X*X*X*X*X*X*X*X*X*X*X",
"*X*X*X*X*X*X*X*X*X*X*X*X*X*X*X*X*X*X*X*X*X*X*X*X*X*X*X*X*X*X*X*X*X*X*X*X*X*X*X*X*X*X*X*X*X*X*X*X*X*X*X*X*X*X*X*X*X*X*X*X*X*X*X*X",
"*X*X*X*X*X*X*X*X*X*X*X*X*X*X*X*X*X*X*X*X*X*X*X*X*X*X*X*X*X*X*X*X*X*X*X*X*X*X*X*X*X*X*X*X*X*X8 *X*X*X*X*X*X*X*X*X*X*X*X*X*X*X*X*X",
"*X*X*X*X*X*X*X*X*X*X*X*X*X*X*X*X*Xq *X*X*X*X*X*X*X*X*X*X*X*X*X*X*X*X*X*X*X*X*X*X*X*X*X*X*X*Xd *X*X*X*X*X*X*X*X*X*X*X*X*X*X*X*X*X",
"*X*X*X*X*X*X*X*X*X*X*X*X*X*X*X*X*X6 *X*X*X*X*X*X*X*X*X*X*X*X*X*X*X*X*X*X*X*X*X*X*X*X*X*X*X*XI *X*X*X*X*X*X*X*X*X*X*X*X*X*X*X*X*X",
"*X*X*X*X*X*X*X*X*X*X*X*X*X*X*X*X*X- 8 *X*X*X*X*X*X*X*X*X*X*X*X*X*X*X*X*X*X*X*X*X*X*X*X*X*X*Xj *X*X*X*X*X*X*X*X*X*X*X*X*X*X*X*X*X",
"*X*X*X*X*X*X*X*X*X*X*X*X*X*X*X*X*X* q *X*X*X*X*X*X*X*X*X*X*X*X*X*X*X*X*X*X*X*X*X*X*X*X*X*X*Xs *X*X*X*X*X*X*X*X*X*X*X*X*X*X*X*X*X",
"*X*X*X*X*X*X*X*X*X*X*X*X*X*X*X*X*X4 0 *X*X*X*X*X*X*X*X*X*X*X*X*X*X*X*X*X*X*X*X*X*X*X*X*X*Xq u d *X*X*X*X*X*X*X*X*X*X*X*X*X*X*X*X",
"*X*X*X*X*X*X*X*X*X*X*X*X*X*X*X*X*X4 , *X*X*X*X*X*X*X*X*X*X*X*X*X*X*X*X*X*X*X*X*X*X*X*X*X*X6 0 i *X*X*X*X*X*X*X*X*X*X*X*X*X*X*X*X",
"*X*X*X*X*X*X*X*X*X*X*X*X*X*X*X*X8 4 * *X*X*X*X*X*X*X*X*X*X*X*X*X*X*X*X*X*X*X*X*X*X*X*X*X*X, 4 p *X*X*X*X*X*X*X*X*X*X*X*X*X*X*X*X",
"*X*X*X*X*X*X*X*X*X*X*X*X*X*X*X*X8 * + *X*X*X*X*X*X*X*X*X*X*X*X*X*X*X*X*X*X*X*X*X*X*X*X*X*X* 5 i *X*X*X*X*X*X*X*X*X*X*X*X*X*X*X*X",
"*X*X*X*X*X*X*X*X*X*X*X*X*X*X*X*X- # + * *X*X*X*X*X*X*X*X*X*X*X*X*X*X*X*X*X*X*X*X*X*X*X*Xp 4 i i *X*X*X*X*X*X*X*X*X*X*X*X*X*X*X*X",
"*X*X*X*X*X*X*X*X*X*X*X*X*X*X*X*Xl * # + *X*X*X*X*X*X*X*X*X*X*X*X*X*X*X*X*X*X*X*X*X*X*X*Xk s 5 k *X*X*X*X*X*X*X*X*X*X*X*X*X*X*X*X",
"*X*X*X*X*X*X*X*X*X*X*X*X*X*X*X*Xp.3 * # *X*X*X*X*X*X*X*X*X*X*X*X*X*X*X*X*X*X*X*X*X*X*X*XP h 3 0.*X*X*X*X*X*X*X*X*X*X*X*X*X*X*X*X",
"*X*X*X*X*X*X*X*X*X*X*X*X*X*X*X*XY.i * + ; *X*X*X*X*X*X*X*X*X*X*X*X*X*X*X*X*X*X*X*X*X*Xp j h h I.*X*X*X*X*X*X*X*X*X*X*X*X*X*X*X*X",
"*X*X*X*X*X*X*X*X*X*X*X*X*X*X*X*X'.2.& # * *X*X*X*X*X*X*X*X*X*X*X*X*X*X*X*X*X*X*X*X*X*Xi 5 u 2._.*X*X*X*X*X*X*X*X*X*X*X*X*X*X*X*X",
"*X*X*X*X*X*X*X*X*X*X*X*X*X*X*X*X'.G.f & # 8 *X*X*X*X*X*X*X*X*X*X*X*X*X*X*X*X*X*X*X*X*Xi * i C.W.*X*X*X*X*X*X*X*X*X*X*X*X*X*X*X*X",
"*X*X*X*X*X*X*X*X*X*X*X*X*X*X*X*X'.J.u.5 * - *X*X*X*X*X*X*X*X*X*X*X*X*X*X*X*X*X*X*X*Xk j = 9.D.L.*X*X*X*X*X*X*X*X*X*X*X*X*X*X*X*X",
"*X*X*X*X*X*X*X*X*X*X*X*X*X*X*X*X'.H.Q.} 5 u d *X*X*X*X*X*X*X*X*X*X*X*X*X*X*X*X*X*X*XT j Q R.Z.P.*X*X*X*X*X*X*X*X*X*X*X*X*X*X*X*X",
"*X*X*X*X*X*X*X*X*X*X*X*X*X*X*X*X@XJ.).C.P P T *X*X*X*X*X*X*X*X*X*X*X*X*X*X*X*X*X*Xk P j B.Q.Z.T.*X*X*X*X*X*X*X*X*X*X*X*X*X*X*X*X",
"*X*X*X*X*X*X*X*X*X*X*X*X*X*X*X*X*X).M.oXh.Y ] N *X*X*X*X*X*X*X*X*X*X*X*X*X*X*X*X*Xs h 3.oXv.v.].*X*X*X*X*X*X*X*X*X*X*X*X*X*X*X*X",
"*X*X*X*X*X*X*X*X*X*X*X*X*X*X*X*X*X%X&.G.OX=.T { *X*X*X*X*X*X*X*X*X*X*X*X*X*X*X*X; 4 E ).|.[ v.*X*X*X*X*X*X*X*X*X*X*X*X*X*X*X*X*X",
"*X*X*X*X*X*X*X*X*X*X*X*X*X*X*X*X*X&X3.=.#X^.{ ] *X*X*X*X*X*X*X*X*X*X*X*X*X*X*X*XO u B.oX6.W Z.*X*X*X*X*X*X*X*X*X*X*X*X*X*X*X*X*X",
"*X*X*X*X*X*X*X*X*X*X*X*X*X*X*X*X*X&Xb.P S.$Xg.P I *X*X*X*X*X*X*X*X*X*X*X*X*X*X$ X 1.#Xn.g 2.E.*X*X*X*X*X*X*X*X*X*X*X*X*X*X*X*X*X",
"*X*X*X*X*X*X*X*X*X*X*X*X*X*X*X*X*XOXC.Y $.[.+X4.K p *X*X*X*X*X*X*X*X*X*X*X*X*XX 9 E. XW g f.).*X*X*X*X*X*X*X*X*X*X*X*X*X*X*X*X*X",
"*X*X*X*X*X*X*X*X*X*X*X*X*X*X*X*X*X}.F.$.%.=.oX).R 4 *X*X*X*X*X*X*X*X*X*X*X*X+ + p.I.*.{ $.l._.*X*X*X*X*X*X*X*X*X*X*X*X*X*X*X*X*X",
"*X*X*X*X*X*X*X*X*X*X*X*X*X*X*X*X*X*XJ.$.M.P f.XXy.- 8 *X*X*X*X*X*X*X*X*X*X*X. ;.E.;.4 z.$.F.].*X*X*X*X*X*X*X*X*X*X*X*X*X*X*X*X*X",
"*X*X*X*X*X*X*X*X*X*X*X*X*X*X*X*X*X*XJ.E g.f.g z.!...3 *X*X*X*X*X*X*X*X*X*XX c S.a.o -.C.' G.*X*X*X*X*X*X*X*X*X*X*X*X*X*X*X*X*X*X",
"*X*X*X*X*X*X*X*X*X*X*X*X*X*X*X*X*X*XQ. .o.~.~ f G.H.M 0 *X*X*X*X*X*X*X*X$ % c.S.9 > S.5.*.D.*X*X*X*X*X*X*X*X*X*X*X*X*X*X*X*X*X*X",
"*X*X*X*X*X*X*X*X*X*X*X*X*X*X*X*X*X*X_.e.Q Q.C.h X.!.N.i *X*X*X*X*X*X*X*Xo q.I.F o p.D.~ 5._.*X*X*X*X*X*X*X*X*X*X*X*X*X*X*X*X*X*X",
"*X*X*X*X*X*X*X*X*X*X*X*X*X*X*X*X*X*X].a.a v.r.h.3 e..Xe.* *X*X*X*X*X*X$ ;.U.1.  7.0.c.l y._.*X*X*X*X*X*X*X*X*X*X*X*X*X*X*X*X*X*X",
"*X*X*X*X*X*X*X*X*X*X*X*X*X*X*X*X*X*X*XA.7 q.V t.#.= v.!.^ *X*X*X*X*X*Xc S.s.o F p.t s.w S.W.*X*X*X*X*X*X*X*X*X*X*X*X*X*X*X*X*X*X",
"*X*X*X*X*X*X*X*X*X*X*X*X*X*X*X*X*X*X*XL.v / >.< Z.n 7 I.L.w *X*X*X*Xe m.V.> 1 m.> G >.c ).*X*X*X*X*X*X*X*X*X*X*X*X*X*X*X*X*X*X*X",
"*X*X*X*X*X*X*X*X*X*X*X*X*X*X*X*X*X*X*XU._ x w.X ^ V.# v R.a.2 *X*X*Xp.D.b o b.G   q.c F ).*X*X*X*X*X*X*X*X*X*X*X*X*X*X*X*X*X*X*X",
"*X*X*X*X*X*X*X*X*X*X*X*X*X*X*X*X*X*X*X/.r.> a.x 1 0.p.X >.R.7.*X*X<.I.<.. 7.q.> t s.1 7.`.*X*X*X*X*X*X*X*X*X*X*X*X*X*X*X*X*X*X*X",
"*X*X*X*X*X*X*X*X*X*X*X*X*X*X*X*X*X*X*X*Xm.> 0.G >.9 b.^ X a.R.;.` L.a.+ S V.2 :.F p.% c.*X*X*X*X*X*X*X*X*X*X*X*X*X*X*X*X*X*X*X*X",
"*X*X*X*X*X*X*X*X*X*X*X*X*X*X*X*X*X*X*X*XD.v / >.b + +.E.1 : A.L.L.A.> : U.;.o b ;.;.t Z.*X*X*X*X*X*X*X*X*X*X*X*X*X*X*X*X*X*X*X*X",
"*X*X*X*X*X*X*X*X*X*X*X*X*X*X*X*X*X*X*X*XY.>.t p.. F V.;.O S I.<.;.D.G + / V./   q.c / L.*X*X*X*X*X*X*X*X*X*X*X*X*X*X*X*X*X*X*X*X",
"*X*X*X*X*X*X*X*X*X*X*X*X*X*X*X*X*X*X*X*X(.i.> a.q.L.S X ;.I.,.O . +.R.<.O Z L.q.s.1 q.P.*X*X*X*X*X*X*X*X*X*X*X*X*X*X*X*X*X*X*X*X",
"*X*X*X*X*X*X*X*X*X*X*X*X*X*X*X*X*X*X*X*X*XA.9 0.Z.y X 7.I.^ @ * * X S I.t.5 m Z.w.1 m.*X*X*X*X*X*X*X*X*X*X*X*X*X*X*X*X*X*X*X*X*X",
"*X*X*X*X*X*X*X*X*X*X*X*X*X*X*X*X*X*X*X*X*XI.G t > + p.L.c   , g.v.6 . x D.N.i w t ^ I.*X*X*X*X*X*X*X*X*X*X*X*X*X*X*X*X*X*X*X*X*X",
"*X*X*X*X*X*X*X*X*X*X*X*X*X*X*X*X*X*X*X*X*X/.0.  > s.S.t   $ k.Q.!.k.# . x V.B.a . q.Y.*X*X*X*X*X*X*X*X*X*X*X*X*X*X*X*X*X*X*X*X*X",
"*X*X*X*X*X*X*X*X*X*X*X*X*X*X*X*X*X*X*X*X*X*Xc.v b.m.9   % a.D.D.I.I.a.6 X a H.D.S A.*X*X*X*X*X*X*X*X*X*X*X*X*X*X*X*X*X*X*X*X*X*X",
"*X*X*X*X*X*X*X*X*X*X*X*X*X*X*X*X*X*X*X*X*X*Xm.D.c.>   % a.S.D.1.,.I.R.A.z @ m D.Q.G.*X*X*X*X*X*X*X*X*X*X*X*X*X*X*X*X*X*X*X*X*X*X",
"*X*X*X*X*X*X*X*X*X*X*X*X*X*X*X*X*X*X*X*X*X*XY.a.9 . > a.S.Z.>.+ X ;.I.J.D.m * f b.W.*X*X*X*X*X*X*X*X*X*X*X*X*X*X*X*X*X*X*X*X*X*X",
"*X*X*X*X*X*X*X*X*X*X*X*X*X*X*X*X*X*X*X*X*X*XK.;   1 c.I.V.G X X X O ..).oXG.E @ 0 K.*X*X*X*X*X*X*X*X*X*X*X*X*X*X*X*X*X*X*X*X*X*X",
"*X*X*X*X*X*X*X*X*X*X*X*X*X*X*X*X*X*X*X*X*X*X*X. 1 c.I.m.v X X # 4 s h 4.XX).F.m = *X*X*X*X*X*X*X*X*X*X*X*X*X*X*X*X*X*X*X*X*X*X*X",
"*X*X*X*X*X*X*X*X*X*X*X*X*X*X*X*X*X*X*X*X*X*X*X9 c.I.m.t . O * r.y.U T P *.H.|.Z.N *X*X*X*X*X*X*X*X*X*X*X*X*X*X*X*X*X*X*X*X*X*X*X",
"*X*X*X*X*X*X*X*X*X*X*X*X*X*X*X*X*X*X*X*X*X*X*XK.I.c.e . X < c.2. .h.k g K &.J.Q.P.*X*X*X*X*X*X*X*X*X*X*X*X*X*X*X*X*X*X*X*X*X*X*X",
"*X*X*X*X*X*X*X*X*X*X*X*X*X*X*X*X*X*X*X*X*X*X*X*Xc.1 o . 9 B.O.i , ^ B.L K h ~ G.*X*X*X*X*X*X*X*X*X*X*X*X*X*X*X*X*X*X*X*X*X*X*X*X",
"*X*X*X*X*X*X*X*X*X*X*X*X*X*X*X*X*X*X*X*X*X*X*X*Xr # * w b.~ i k.c.4 ^ S.[ j g ) *X*X*X*X*X*X*X*X*X*X*X*X*X*X*X*X*X*X*X*X*X*X*X*X",
"*X*X*X*X*X*X*X*X*X*X*X*X*X*X*X*X*X*X*X*X*X*X*X*X; & f A.! i b.I.E.v.4  .J.%.H i *X*X*X*X*X*X*X*X*X*X*X*X*X*X*X*X*X*X*X*X*X*X*X*X",
"*X*X*X*X*X*X*X*X*X*X*X*X*X*X*X*X*X*X*X*X*X*X*X*X*Xy L.! 4 b.Q.! | |.N.u X.H.C *X*X*X*X*X*X*X*X*X*X*X*X*X*X*X*X*X*X*X*X*X*X*X*X*X",
"*X*X*X*X*X*X*X*X*X*X*X*X*X*X*X*X*X*X*X*X*X*X*X*X*X*X+.4 c.!.~ = = ! Q.j.5 ;.*X*X*X*X*X*X*X*X*X*X*X*X*X*X*X*X*X*X*X*X*X*X*X*X*X*X",
"*X*X*X*X*X*X*X*X*X*X*X*X*X*X*X*X*X*X*X*X*X*X*X*X*X*X*Xr.R.B @ m m @ Z Q.t.q *X*X*X*X*X*X*X*X*X*X*X*X*X*X*X*X*X*X*X*X*X*X*X*X*X*X",
"*X*X*X*X*X*X*X*X*X*X*X*X*X*X*X*X*X*X*X*X*X*X*X*X*X*X*XL.n O B Z D B @ ! R.*X*X*X*X*X*X*X*X*X*X*X*X*X*X*X*X*X*X*X*X*X*X*X*X*X*X*X",
"*X*X*X*X*X*X*X*X*X*X*X*X*X*X*X*X*X*X*X*X*X*X*X*X*X*X*XF @ ! V i.r.^ Z @ +.*X*X*X*X*X*X*X*X*X*X*X*X*X*X*X*X*X*X*X*X*X*X*X*X*X*X*X",
"*X*X*X*X*X*X*X*X*X*X*X*X*X*X*X*X*X*X*X*X*X*X*X*X*X*X*X; l F 8.@.#.#.) w * *X*X*X*X*X*X*X*X*X*X*X*X*X*X*X*X*X*X*X*X*X*X*X*X*X*X*X",
"*X*X*X*X*X*X*X*X*X*X*X*X*X*X*X*X*X*X*X*X*X*X*X*X*X*X*X*X*Xp./ 6 7 ,.+.*X*X*X*X*X*X*X*X*X*X*X*X*X*X*X*X*X*X*X*X*X*X*X*X*X*X*X*X*X",
"*X*X*X*X*X*X*X*X*X*X*X*X*X*X*X*X*X*X*X*X*X*X*X*X*X*X*X*X*X:.6 @.@.6 :.*X*X*X*X*X*X*X*X*X*X*X*X*X*X*X*X*X*X*X*X*X*X*X*X*X*X*X*X*X",
"*X*X*X*X*X*X*X*X*X*X*X*X*X*X*X*X*X*X*X*X*X*X*X*X*X*X*X*X*X*X*XV V *X*X*X*X*X*X*X*X*X*X*X*X*X*X*X*X*X*X*X*X*X*X*X*X*X*X*X*X*X*X*X",
"*X*X*X*X*X*X*X*X*X*X*X*X*X*X*X*X*X*X*X*X*X*X*X*X*X*X*X*X*X*X*XA A *X*X*X*X*X*X*X*X*X*X*X*X*X*X*X*X*X*X*X*X*X*X*X*X*X*X*X*X*X*X*X"
};
