/* XPM */
static char *_8607_2d18603e1e77038d17bd93532aab2326806d220cbbe66e8880f74e9f5f5f7fc6[] = {
/* columns rows colors chars-per-pixel */
"32 32 210 2 ",
"   c #000007",
".  c #000011",
"X  c #000014",
"o  c #000015",
"O  c #000019",
"+  c #00001B",
"@  c #00001F",
"#  c #000021",
"$  c #000125",
"%  c #000226",
"&  c #000028",
"*  c #010529",
"=  c #000437",
"-  c #010736",
";  c #000A30",
":  c #000038",
">  c #000439",
",  c #00003E",
"<  c #00003F",
"1  c #000E3E",
"2  c #020A41",
"3  c #000B48",
"4  c #040F4E",
"5  c #0B1A46",
"6  c #000053",
"7  c #000755",
"8  c #000757",
"9  c #020B50",
"0  c #000F52",
"q  c #020E53",
"w  c #000E58",
"e  c #001352",
"r  c #001652",
"t  c #031054",
"y  c #001754",
"u  c #001952",
"i  c #001954",
"p  c #0D1F50",
"a  c #001B5A",
"s  c #11205B",
"d  c #12275E",
"f  c #000C66",
"g  c #00096B",
"h  c #041163",
"j  c #0B1F66",
"k  c #0C1D64",
"l  c #01166A",
"z  c #04146A",
"x  c #000271",
"c  c #020F71",
"v  c #000579",
"b  c #00057C",
"n  c #011F76",
"m  c #0A1E70",
"M  c #00107B",
"N  c #061E78",
"B  c #092062",
"V  c #0B2262",
"C  c #112262",
"Z  c #102762",
"A  c #142963",
"S  c #142B68",
"D  c #142C6A",
"F  c #152C6B",
"G  c #152E6A",
"H  c #13296E",
"J  c #162D6C",
"K  c #172F6C",
"L  c #17306C",
"P  c #17306F",
"I  c #1A346F",
"U  c #0A207A",
"Y  c #142C71",
"T  c #162F71",
"R  c #153372",
"E  c #163272",
"W  c #193372",
"Q  c #183273",
"!  c #193376",
"~  c #1A357A",
"^  c #1C317D",
"/  c #18357F",
"(  c #1E3A7E",
")  c #0D208B",
"_  c #172F85",
"`  c #143181",
"'  c #153383",
"]  c #163587",
"[  c #163786",
"{  c #1E3180",
"}  c #1F3D86",
"|  c #16328A",
" . c #17338C",
".. c #16368F",
"X. c #012191",
"o. c #01239B",
"O. c #07299A",
"+. c #1A3492",
"@. c #1B3A92",
"#. c #1D3B94",
"$. c #1D3A95",
"%. c #183B9B",
"&. c #1A3C99",
"*. c #1C3D98",
"=. c #1B3C9F",
"-. c #122EA7",
";. c #1A3FA5",
":. c #0934B4",
">. c #1439B4",
",. c #1E4193",
"<. c #1D4299",
"1. c #1D419E",
"2. c #224085",
"3. c #21408B",
"4. c #23418A",
"5. c #204191",
"6. c #264490",
"7. c #244593",
"8. c #234297",
"9. c #204597",
"0. c #26479E",
"q. c #274998",
"w. c #294898",
"e. c #2B4999",
"r. c #294C9C",
"t. c #1B43AA",
"y. c #1A45B7",
"u. c #1D45B4",
"i. c #1F4BB3",
"p. c #2546A1",
"a. c #2547A4",
"s. c #2A4EA0",
"d. c #244EA8",
"f. c #2454A7",
"g. c #2B50A0",
"h. c #2A50A1",
"j. c #2E52A3",
"k. c #2A50A7",
"l. c #2C51A4",
"z. c #2D52A6",
"x. c #2755AB",
"c. c #2C52AE",
"v. c #3355A0",
"b. c #224CB0",
"n. c #224DB2",
"m. c #214EBA",
"M. c #2A50B1",
"N. c #2B54B3",
"B. c #2C54B3",
"V. c #2B54B6",
"C. c #2D55B5",
"Z. c #2B56B8",
"A. c #2854BB",
"S. c #3059B2",
"D. c #335AB2",
"F. c #315DB7",
"G. c #3259B9",
"H. c #355DBA",
"J. c #375FBC",
"K. c #3A61B0",
"L. c #3363BE",
"P. c #3B68BF",
"I. c #4066BA",
"U. c #4169B8",
"Y. c #255CCA",
"T. c #2F5DC8",
"R. c #3059C3",
"E. c #335EC0",
"W. c #315DC7",
"Q. c #255DDB",
"!. c #285DDC",
"~. c #2F64CF",
"^. c #3563C3",
"/. c #3963C1",
"(. c #3864C5",
"). c #3C69CB",
"_. c #3C68CC",
"`. c #2E64D3",
"'. c #2C65DC",
"]. c #366AD3",
"[. c #396AD0",
"{. c #3768DB",
"}. c #3D6FDF",
"|. c #3A76D4",
" X c #3C71DD",
".X c #3A75E3",
"XX c #3F76E0",
"oX c #397CF0",
"OX c #4168C7",
"+X c #436EC6",
"@X c #466FC4",
"#X c #4C79D6",
"$X c #467FED",
"%X c #487FE9",
"&X c #5685D7",
"*X c #5188DF",
"=X c #578DDC",
"-X c #5288EC",
";X c #4C90EB",
":X c #4580F3",
">X c #4681F5",
",X c #448AF2",
"<X c #458CF3",
"1X c #4F8FF9",
"2X c #4A8EFC",
"3X c #4893FF",
"4X c #4A92FF",
"5X c #5699FE",
"6X c #74ADE9",
"7X c None",
/* pixels */
"7X7X7X7X7X7X7X7X7X7X7X7X7X7X7X7X7X7X7X7X7X7X7X7X7X7X7X7X7X7X7X7X",
"7X7X7X7X7X7X7X7X7X7X7X7X7X7X7X7X7X7X7X7X7X7X7X7X7X7X7X7X7X7X7X7X",
"7X7X7X7X7X7X7X7X7X7X7X7X7X7X7X7X7X7X7X7X7X7X7X7X7X7X7X7X7X7X7X7X",
"7X7X7X7X7X7X7X7Xi 7X7X7X7X7X7X7X7X7X7X7X7X7X7Xn 7X7X7X7X7X7X7X7X",
"7X7X7X7X7X7X7X7Xe a 7X7X7X7X7X7X7X7X7X7X7X7X7Xl 7X7X7X7X7X7X7X7X",
"7X7X7X7X7X7X7X7X0 r 7X7X7X7X7X7X7X7X7X7X7X7Xu w 7X7X7X7X7X7X7X7X",
"7X7X7X7X7X7X7X7X> 1 7X7X7X7X7X7X7X7X7X7X7X7Xy 7 7X7X7X7X7X7X7X7X",
"7X7X7X7X7X7X7X7Xk $ 7X7X7X7X7X7X7X7X7X7X7X7Xg m 7X7X7X7X7X7X7X7X",
"7X7X7X7X7X7X7X7XG.+ 7X7X7X7X7X7X7X7X7X7X7X7X6 Z.7X7X7X7X7X7X7X7X",
"7X7X7X7X7X7X7X7X1Xz & 7X7X7X7X7X7X7X7X7X7X8 h %X7X7X7X7X7X7X7X7X",
"7X7X7X7X7X7X7X7X5X'.x 7X7X7X7X7X7X7X7X7X7Xv ~.-X7X7X7X7X7X7X7X7X",
"7X7X7X7X7X7X7X7X=X,X!.b 7X7X7X7X7X7X7X7X, m.oXOX7X7X7X7X7X7X7X7X",
"7X7X7X7X7X7X7X7X6Xi.;X>.7X7X7X7X7X7X7X7Xs <XO.#X7X7X7X7X7X7X7X7X",
"7X7X7X7X7X7X7X7X7X:.y.2Xf 7X7X7X7X7X7X# P.u.o.7X7X7X7X7X7X7X7X7X",
"7X7X7X7X7X7X7X7X7XY.X.`.B.7X7X7X7X7X7X6.s.N Q.7X7X7X7X7X7X7X7X7X",
"7X7X7X7X7X7X7X7X7Xc.n.;.{.&.7X7X7X7XG H.I b.A.7X7X7X7X7X7X7X7X7X",
"7X7X7X7X7X7X7X7X7XI.| M...}.V 7X7X7X/.L q.@.L.7X7X7X7X7X7X7X7X7X",
"7X7X7X7X7X7X7X7X7X&X` J H 8.(.7X7X^.4.d K [ *X7X7X7X7X7X7X7X7X7X",
"7X7X7X7X7X7X7X7X7X7X9.Z ! Q e.x.f.w.P W A ,.7X7X7X7X7X7X7X7X7X7X",
"7X7X7X7X7X7X7X7X7X7Xj.Y 3.} D _.).F ( 2.T r.7X7X7X7X7X7X7X7X7X7X",
"7X7X7X7X7X7X7X7X7X7XU.' 7.~ k.2 - l.#.a./ K.7X7X7X7X7X7X7X7X7X7X",
"7X7X7X7X7X7X7X7X7X7X7XB S h.* V.C.% N.] j 7X7X7X7X7X7X7X7X7X7X7X",
"7X7X7X7X7X7X7X7X7X7X7X[.5.o g.>X$Xz.: d. X7X7X7X7X7X7X7X7X7X7X7X",
"7X7X7X7X7X7X7X7X7X7X7Xv.X F.:XO @ 4X|.< D.7X7X7X7X7X7X7X7X7X7X7X",
"7X7X7X7X7X7X7X7X7X7X7X; J.XX. 5 U M 3X].3 7X7X7X7X7X7X7X7X7X7X7X",
"7X7X7X7X7X7X7X7X7X7X7X7XE.  p t.1.) x .X7X7X7X7X7X7X7X7X7X7X7X7X",
"7X7X7X7X7X7X7X7X7X7X7X7X= C =.R.S.<.-.c 7X7X7X7X7X7X7X7X7X7X7X7X",
"7X7X7X7X7X7X7X7X7X7X7X7X7X .W.$.*.T.%.7X7X7X7X7X7X7X7X7X7X7X7X7X",
"7X7X7X7X7X7X7X7X7X7X7X7X7X@X_ t q +.+X7X7X7X7X7X7X7X7X7X7X7X7X7X",
"7X7X7X7X7X7X7X7X7X7X7X7X7X7X4 0.p.9 7X7X7X7X7X7X7X7X7X7X7X7X7X7X",
"7X7X7X7X7X7X7X7X7X7X7X7X7X7X7X^ { 7X7X7X7X7X7X7X7X7X7X7X7X7X7X7X",
"7X7X7X7X7X7X7X7X7X7X7X7X7X7X7XR E 7X7X7X7X7X7X7X7X7X7X7X7X7X7X7X"
};
